<svg width="1200" height="720" viewBox="0 0 1200 720" fill="none" xmlns="http://www.w3.org/2000/svg">
  <rect width="1200" height="720" rx="36" fill="#F7FAFE"/>
  <rect x="70" y="70" width="1060" height="580" rx="30" fill="white" stroke="#E4ECF5" stroke-width="4"/>
  <rect x="120" y="130" width="250" height="360" rx="28" fill="#EFF5FC"/>
  <rect x="158" y="182" width="174" height="18" rx="9" fill="#4A90E2"/>
  <rect x="158" y="224" width="122" height="14" rx="7" fill="#A8C7EF"/>
  <rect x="158" y="258" width="168" height="14" rx="7" fill="#D0E1F7"/>
  <rect x="158" y="292" width="154" height="14" rx="7" fill="#D0E1F7"/>
  <rect x="158" y="326" width="138" height="14" rx="7" fill="#D0E1F7"/>
  <rect x="158" y="360" width="164" height="14" rx="7" fill="#D0E1F7"/>
  <rect x="475" y="170" width="250" height="380" rx="30" fill="#2C3E50"/>
  <rect x="520" y="220" width="160" height="22" rx="11" fill="#8EB4E8"/>
  <rect x="520" y="266" width="134" height="18" rx="9" fill="#D6E3F5"/>
  <rect x="520" y="302" width="160" height="18" rx="9" fill="#D6E3F5"/>
  <rect x="520" y="338" width="120" height="18" rx="9" fill="#D6E3F5"/>
  <rect x="520" y="398" width="128" height="20" rx="10" fill="#4A90E2"/>
  <rect x="820" y="130" width="250" height="360" rx="28" fill="#EFF5FC"/>
  <rect x="858" y="184" width="174" height="18" rx="9" fill="#4A90E2"/>
  <rect x="858" y="226" width="122" height="14" rx="7" fill="#A8C7EF"/>
  <rect x="858" y="260" width="168" height="14" rx="7" fill="#D0E1F7"/>
  <rect x="858" y="294" width="154" height="14" rx="7" fill="#D0E1F7"/>
  <rect x="858" y="328" width="138" height="14" rx="7" fill="#D0E1F7"/>
  <rect x="858" y="362" width="164" height="14" rx="7" fill="#D0E1F7"/>
  <path d="M370 310C408 310 436 314 470 334" stroke="#4A90E2" stroke-width="10" stroke-linecap="round"/>
  <path d="M730 334C770 314 790 310 820 310" stroke="#4A90E2" stroke-width="10" stroke-linecap="round"/>
  <circle cx="600" cy="92" r="28" fill="#EAF2FD"/>
  <path d="M600 72V112" stroke="#4A90E2" stroke-width="10" stroke-linecap="round"/>
  <path d="M580 92H620" stroke="#4A90E2" stroke-width="10" stroke-linecap="round"/>
</svg>
