<svg width="1200" height="720" viewBox="0 0 1200 720" fill="none" xmlns="http://www.w3.org/2000/svg">
  <rect width="1200" height="720" rx="36" fill="#F7FAFE"/>
  <rect x="70" y="70" width="1060" height="580" rx="30" fill="white" stroke="#E4ECF5" stroke-width="4"/>
  <rect x="130" y="150" width="220" height="180" rx="28" fill="#EAF2FD"/>
  <rect x="172" y="204" width="136" height="22" rx="11" fill="#4A90E2"/>
  <rect x="156" y="248" width="168" height="16" rx="8" fill="#A8C7EF"/>
  <rect x="184" y="280" width="110" height="16" rx="8" fill="#A8C7EF"/>
  <rect x="490" y="120" width="220" height="180" rx="28" fill="#EFF5FC"/>
  <circle cx="600" cy="186" r="42" fill="#4A90E2"/>
  <circle cx="566" cy="222" r="18" fill="#BFD7F5"/>
  <circle cx="638" cy="222" r="18" fill="#BFD7F5"/>
  <rect x="548" y="262" width="104" height="18" rx="9" fill="#9CBEEB"/>
  <rect x="850" y="150" width="220" height="180" rx="28" fill="#EAF2FD"/>
  <rect x="892" y="196" width="136" height="84" rx="16" fill="#2C3E50"/>
  <rect x="918" y="224" width="48" height="8" rx="4" fill="#8EB4E8"/>
  <rect x="918" y="242" width="84" height="8" rx="4" fill="#D6E3F5"/>
  <rect x="918" y="260" width="66" height="8" rx="4" fill="#D6E3F5"/>
  <circle cx="600" cy="458" r="110" fill="#F4F8FD" stroke="#DCE8F7" stroke-width="4"/>
  <rect x="525" y="402" width="150" height="26" rx="13" fill="#4A90E2"/>
  <rect x="496" y="446" width="208" height="18" rx="9" fill="#A8C7EF"/>
  <rect x="524" y="480" width="152" height="18" rx="9" fill="#A8C7EF"/>
  <path d="M348 240C418 240 472 310 506 382" stroke="#4A90E2" stroke-width="10" stroke-linecap="round"/>
  <path d="M710 382C748 308 796 240 850 240" stroke="#4A90E2" stroke-width="10" stroke-linecap="round"/>
  <path d="M428 500C468 512 498 512 520 506" stroke="#9CBEEB" stroke-width="10" stroke-linecap="round"/>
  <path d="M678 506C716 512 760 510 812 494" stroke="#9CBEEB" stroke-width="10" stroke-linecap="round"/>
</svg>
