<svg width="1200" height="720" viewBox="0 0 1200 720" fill="none" xmlns="http://www.w3.org/2000/svg">
  <rect width="1200" height="720" rx="36" fill="#F7FAFE"/>
  <rect x="70" y="70" width="1060" height="580" rx="30" fill="white" stroke="#E4ECF5" stroke-width="4"/>
  <rect x="140" y="150" width="280" height="420" rx="30" fill="#EFF5FC"/>
  <rect x="200" y="190" width="160" height="24" rx="12" fill="#4A90E2"/>
  <rect x="182" y="240" width="196" height="16" rx="8" fill="#A8C7EF"/>
  <rect x="182" y="276" width="154" height="16" rx="8" fill="#D0E1F7"/>
  <rect x="182" y="332" width="196" height="60" rx="16" fill="white"/>
  <circle cx="220" cy="362" r="14" fill="#4A90E2"/>
  <rect x="248" y="352" width="92" height="18" rx="9" fill="#9CBEEB"/>
  <rect x="182" y="418" width="196" height="60" rx="16" fill="white"/>
  <circle cx="220" cy="448" r="14" fill="#4A90E2"/>
  <rect x="248" y="438" width="108" height="18" rx="9" fill="#9CBEEB"/>
  <circle cx="650" cy="280" r="120" fill="#F4F8FD" stroke="#DCE8F7" stroke-width="4"/>
  <circle cx="650" cy="254" r="46" fill="#4A90E2"/>
  <path d="M584 362C603 316 695 316 716 362" fill="#A8C7EF"/>
  <path d="M584 362C603 316 695 316 716 362" stroke="#A8C7EF" stroke-width="14" stroke-linecap="round"/>
  <rect x="830" y="180" width="220" height="120" rx="24" fill="#EAF2FD"/>
  <rect x="872" y="224" width="136" height="18" rx="9" fill="#4A90E2"/>
  <rect x="848" y="360" width="220" height="150" rx="24" fill="#EAF2FD"/>
  <path d="M900 442L936 478L1016 398" stroke="#4A90E2" stroke-width="16" stroke-linecap="round" stroke-linejoin="round"/>
  <path d="M420 360C470 342 512 334 530 334" stroke="#4A90E2" stroke-width="10" stroke-linecap="round"/>
  <path d="M770 334C786 334 816 340 848 356" stroke="#4A90E2" stroke-width="10" stroke-linecap="round"/>
</svg>
