<svg width="1200" height="720" viewBox="0 0 1200 720" fill="none" xmlns="http://www.w3.org/2000/svg">
  <rect width="1200" height="720" rx="36" fill="#F7FAFE"/>
  <rect x="80" y="80" width="1040" height="560" rx="30" fill="white" stroke="#E4ECF5" stroke-width="4"/>
  <circle cx="220" cy="220" r="86" fill="#EAF2FD"/>
  <rect x="172" y="156" width="96" height="18" rx="9" fill="#4A90E2"/>
  <rect x="212" y="120" width="18" height="100" rx="9" fill="#4A90E2"/>
  <path d="M188 252L252 316" stroke="#4A90E2" stroke-width="18" stroke-linecap="round"/>
  <path d="M252 252L188 316" stroke="#4A90E2" stroke-width="18" stroke-linecap="round"/>
  <rect x="360" y="150" width="680" height="96" rx="22" fill="#F4F8FD"/>
  <rect x="390" y="182" width="180" height="18" rx="9" fill="#9CBEEB"/>
  <rect x="590" y="182" width="140" height="18" rx="9" fill="#D4E3F8"/>
  <rect x="750" y="182" width="120" height="18" rx="9" fill="#D4E3F8"/>
  <rect x="890" y="182" width="120" height="18" rx="9" fill="#4A90E2"/>
  <rect x="150" y="396" width="220" height="140" rx="24" fill="#EFF5FC"/>
  <rect x="192" y="438" width="136" height="22" rx="11" fill="#4A90E2"/>
  <rect x="450" y="360" width="300" height="204" rx="28" fill="#2C3E50"/>
  <rect x="486" y="404" width="228" height="24" rx="12" fill="#C9DCF4"/>
  <rect x="486" y="454" width="186" height="24" rx="12" fill="#C9DCF4"/>
  <rect x="486" y="504" width="120" height="24" rx="12" fill="#8EB4E8"/>
  <rect x="832" y="396" width="218" height="140" rx="24" fill="#EFF5FC"/>
  <path d="M886 490L940 436L980 474L1014 430" stroke="#4A90E2" stroke-width="14" stroke-linecap="round" stroke-linejoin="round"/>
  <circle cx="886" cy="490" r="11" fill="#4A90E2"/>
  <circle cx="940" cy="436" r="11" fill="#4A90E2"/>
  <circle cx="980" cy="474" r="11" fill="#4A90E2"/>
  <circle cx="1014" cy="430" r="11" fill="#4A90E2"/>
</svg>
