<?xml version="1.0" standalone="no"?><!DOCTYPE svg PUBLIC "-//W3C//DTD SVG 1.1//EN" "http://www.w3.org/Graphics/SVG/1.1/DTD/svg11.dtd"><svg width="100%" height="100%" viewBox="0 0 1313 584" version="1.1" xmlns="http://www.w3.org/2000/svg" xmlns:xlink="http://www.w3.org/1999/xlink" xml:space="preserve" style="fill-rule:evenodd;clip-rule:evenodd;stroke-linejoin:round;stroke-miterlimit:1.41421;"><g id="header-logo"><g><path d="M361.114,71.637c25.09,-18.49 55.186,-32.572 86.962,-31.974c30.039,0.483 58.173,15.958 78.57,37.379c28.247,28.816 48.217,66.736 51.687,107.244c-1.678,31.633 -14.507,62.526 -34.875,86.737c-26.257,31.204 -60.848,55.412 -99.337,68.896c-13.426,-55.841 -39.085,-110.289 -81.329,-150.086c-12.545,-11.634 -26.427,-22.33 -42.471,-28.617c-49.241,39.769 -72.682,100.503 -95.496,157.481c0.057,-5.035 -0.057,-10.098 0.939,-15.048c10.326,-51.204 30.125,-100.446 57.687,-144.766c20.797,-33.083 46.314,-63.692 77.663,-87.246Z" style="fill:#369;fill-rule:nonzero;"/><path d="M119.287,108.988c34.421,-14.167 70.435,-24.607 107.103,-31.007c-49.953,20.993 -102.352,38.63 -146.189,71.43c-23.781,18.12 -45.486,42.3 -51.232,72.539c-2.788,19.116 -2.845,40.337 8.648,56.837c16.641,24.578 44.32,38.488 71.373,48.672c52.228,18.377 107.813,25.631 162.971,27.195c28.248,2.646 56.553,-0.256 84.8,-1.394c24.009,-1.365 47.592,-5.831 71.316,-9.416c-20.111,76.864 -42.072,153.812 -76.095,225.896c-15.731,0.825 -30.808,-4.21 -46.34,-5.746c-64.773,-8.42 -125.962,-38.887 -173.241,-83.719c-52.74,-49.526 -91.2,-113.275 -114.697,-181.433c-13.825,-38.204 -14.707,-83.947 8.164,-118.908c21.62,-33.852 57.32,-55.414 93.419,-70.946Z" style="fill:#369;fill-rule:nonzero;"/><path d="M556.657,348.68c5.035,-12.431 11.635,-24.293 14.792,-37.407c-0.512,5.547 -1.138,11.094 -2.645,16.499c-16.158,54.988 -36.981,109.776 -71.8,155.86c-22.957,30.637 -53.366,56.495 -89.494,70.121c-10.383,4.011 -21.164,7.368 -32.372,7.766c26.541,-17.893 53.309,-35.786 77.205,-57.206c47.25,-42.13 79.281,-98.17 104.314,-155.633Z" style="fill:#369;fill-rule:nonzero;"/><g><path d="M709.811,202.973c0,5.199 1.039,9.228 3.119,12.087c2.079,2.86 4.939,4.289 8.578,4.289c4.678,0 8.837,-2.729 12.477,-8.188c3.639,-5.458 5.458,-11.957 5.458,-19.495c0,-4.159 -1.04,-7.538 -3.119,-10.137c-2.08,-2.6 -4.809,-3.899 -8.188,-3.899c-4.679,0 -8.903,2.664 -12.672,7.993c-3.769,5.328 -5.653,11.112 -5.653,17.35ZM710.201,301.619c2.599,-7.798 4.808,-14.947 6.628,-21.445c1.819,-6.498 2.729,-12.477 2.729,-17.936c0,-5.198 -1.3,-9.227 -3.899,-12.087c-2.599,-2.859 -6.108,-4.288 -10.527,-4.288c-10.138,0 -21.835,8.317 -35.091,24.953c-4.679,5.979 -8.058,10.918 -10.138,14.817c-2.079,3.899 -3.119,6.368 -3.119,7.408c0,2.339 0.65,3.509 1.949,3.509c1.04,0 2.665,-1.625 4.874,-4.874c2.21,-3.249 4.679,-6.888 7.408,-10.917c2.73,-4.029 5.654,-7.668 8.773,-10.917c3.119,-3.25 6.239,-4.874 9.358,-4.874c2.339,0 3.834,0.65 4.484,1.949c0.65,1.3 0.974,3.379 0.974,6.239c0,3.639 -0.779,7.993 -2.339,13.061c-1.56,5.069 -3.509,11.113 -5.849,18.131l-15.986,46.788c-4.938,14.037 -8.837,26.059 -11.697,36.066c-2.859,10.008 -4.288,18.39 -4.288,25.149c0,12.996 5.198,19.495 15.596,19.495c5.198,0 10.787,-2.275 16.765,-6.823c5.979,-4.549 11.957,-11.373 17.936,-20.47c10.397,-15.856 15.596,-25.994 15.596,-30.413c0,-1.819 -0.91,-2.729 -2.729,-2.729c-1.04,0 -2.275,1.625 -3.704,4.874c-1.43,3.249 -4.224,8.383 -8.383,15.401c-7.538,13.257 -14.557,19.885 -21.055,19.885c-3.639,0 -5.459,-2.729 -5.459,-8.188c0,-2.339 1.17,-7.408 3.509,-15.206l27.684,-86.558Z" style="fill:#369;fill-rule:nonzero;"/><path d="M862.262,183.088c10.398,0 20.21,2.665 29.438,7.993c9.228,5.329 17.221,13.127 23.979,23.394c6.758,10.268 12.087,22.81 15.986,37.626c3.899,14.816 5.848,31.582 5.848,50.297c0,18.716 -1.949,35.416 -5.848,50.103c-3.899,14.686 -9.228,27.163 -15.986,37.43c-6.758,10.268 -14.621,18.066 -23.589,23.394c-8.968,5.329 -18.651,7.993 -29.048,7.993c-10.657,0 -20.535,-2.664 -29.632,-7.993c-9.098,-5.328 -17.026,-13.061 -23.784,-23.199c-6.759,-10.137 -12.087,-22.614 -15.986,-37.43c-3.899,-14.817 -5.849,-31.582 -5.849,-50.298c0,-18.715 1.95,-35.481 5.849,-50.297c3.899,-14.816 9.227,-27.358 15.986,-37.626c6.758,-10.267 14.686,-18.065 23.784,-23.394c9.097,-5.328 18.715,-7.993 28.852,-7.993ZM887.606,428.337c11.437,-3.12 22.029,-8.448 31.777,-15.986c9.747,-7.538 18.195,-16.831 25.344,-27.878c7.148,-11.047 12.736,-23.524 16.765,-37.431c4.029,-13.906 6.044,-28.788 6.044,-44.644c0,-18.715 -2.794,-36.001 -8.383,-51.857c-5.589,-15.856 -13.192,-29.567 -22.809,-41.134c-9.618,-11.567 -20.795,-20.6 -33.532,-27.098c-12.737,-6.499 -26.123,-9.748 -40.16,-9.748c-14.036,0 -27.423,3.249 -40.16,9.748c-12.737,6.498 -23.914,15.531 -33.531,27.098c-9.618,11.567 -17.286,25.278 -23.005,41.134c-5.718,15.856 -8.577,33.142 -8.577,51.857c0,15.077 1.884,29.373 5.653,42.89c3.769,13.516 9.098,25.733 15.986,36.65c6.888,10.918 15.141,20.34 24.759,28.268c9.618,7.928 20.275,13.842 31.972,17.741l6.628,1.949c2.34,0.78 3.509,3.639 3.509,8.578l0,9.358c0,7.798 1.82,15.206 5.459,22.224c3.639,7.018 8.968,13.192 15.986,18.521c7.018,5.328 15.466,9.552 25.344,12.671c9.877,3.12 21.054,4.679 33.531,4.679c11.697,0 21.51,-1.754 29.438,-5.263c7.928,-3.51 11.892,-7.344 11.892,-11.503c0,-2.859 -1.56,-4.288 -4.679,-4.288c-2.079,0 -5.589,1.169 -10.527,3.509c-4.939,2.339 -11.178,3.509 -18.716,3.509c-6.498,0 -12.866,-1.04 -19.105,-3.119c-6.238,-2.08 -11.892,-5.004 -16.961,-8.773c-5.068,-3.769 -9.357,-8.253 -12.866,-13.452c-3.509,-5.199 -5.914,-10.787 -7.214,-16.766l-2.339,-11.307c0,-0.52 -0.065,-0.91 -0.195,-1.17c-0.13,-0.259 -0.195,-0.519 -0.195,-0.779c0,-3.12 1.56,-5.069 4.679,-5.849l8.188,-2.339Z" style="fill:#369;fill-rule:nonzero;"/><path d="M1029.92,266.137c0,-5.718 -0.325,-9.227 -0.975,-10.527c-0.649,-1.3 -2.404,-1.949 -5.263,-1.949c-2.08,0 -4.224,0.13 -6.434,0.39c-2.209,0.259 -4.743,0.389 -7.603,0.389c-5.458,0 -9.682,-0.13 -12.672,-0.389c-2.989,-0.26 -4.743,-0.39 -5.263,-0.39c-1.3,0 -2.275,0.195 -2.925,0.584c-0.649,0.39 -0.974,1.495 -0.974,3.315c0,2.079 1.039,3.249 3.119,3.509c2.079,0.26 4.419,0.78 7.018,1.559c2.6,0.78 4.939,2.21 7.018,4.289c2.08,2.08 3.12,5.719 3.12,10.918l0,84.218c0,8.318 0.39,16.246 1.169,23.784c0.78,7.538 2.99,14.817 6.629,21.835c3.639,7.798 9.032,13.906 16.181,18.325c7.148,4.419 15.141,6.629 23.979,6.629c6.498,0 12.411,-1.235 17.74,-3.704c5.329,-2.47 10.592,-6.044 15.791,-10.723c5.199,-4.419 8.838,-8.513 10.917,-12.282c2.08,-3.769 3.64,-5.653 4.679,-5.653c0.78,0 1.17,1.559 1.17,4.679l0,18.325c0,2.859 0.195,5.134 0.585,6.823c0.39,1.69 1.364,2.535 2.924,2.535c2.08,0 4.549,-1.235 7.408,-3.704c2.859,-2.47 6.629,-5.004 11.307,-7.604c3.899,-2.079 7.279,-3.704 10.138,-4.873c2.859,-1.17 4.289,-2.795 4.289,-4.874c0,-1.82 -0.91,-2.729 -2.73,-2.729c-1.559,0 -3.314,-0.13 -5.263,-0.39c-1.95,-0.26 -3.704,-1.3 -5.264,-3.12c-1.56,-1.819 -2.339,-5.458 -2.339,-10.917l0,-128.278c0,-5.458 -0.26,-8.902 -0.78,-10.332c-0.52,-1.43 -2.21,-2.144 -5.069,-2.144c-1.3,0 -3.509,0.13 -6.628,0.39c-3.119,0.259 -6.888,0.389 -11.307,0.389c-3.899,0 -7.019,-0.13 -9.358,-0.389c-2.339,-0.26 -4.029,-0.39 -5.069,-0.39c-1.299,0 -2.274,0.195 -2.924,0.584c-0.65,0.39 -0.975,1.495 -0.975,3.315c0,2.079 1.04,3.249 3.119,3.509c2.08,0.26 4.419,0.78 7.019,1.559c2.599,0.78 4.938,2.21 7.018,4.289c2.079,2.08 3.119,5.719 3.119,10.918l0,70.962c0,22.614 -3.119,39.575 -9.357,50.882c-6.239,11.307 -16.376,16.961 -30.413,16.961c-13.516,0 -22.874,-5.069 -28.073,-15.207c-5.198,-10.137 -7.798,-25.343 -7.798,-45.618l0,-89.678Z" style="fill:#369;fill-rule:nonzero;"/><path d="M1268.54,290.701c0,-6.758 -0.26,-12.866 -0.78,-18.325c-0.519,-5.459 -1.949,-10.138 -4.289,-14.037c-2.339,-3.899 -5.848,-6.888 -10.527,-8.967c-4.679,-2.08 -11.047,-3.12 -19.105,-3.12c-10.138,0 -19.495,1.95 -28.073,5.849c-8.578,3.899 -15.986,8.708 -22.224,14.426c-6.239,5.719 -11.048,11.697 -14.427,17.936c-3.379,6.238 -5.069,11.697 -5.069,16.376c0,2.079 0.65,3.704 1.95,4.874c1.3,1.169 2.859,1.754 4.679,1.754c7.278,0 12.347,-2.794 15.206,-8.383c2.859,-5.588 5.719,-12.412 8.578,-20.47c2.339,-6.498 6.498,-12.087 12.477,-16.765c5.978,-4.679 12.347,-7.019 19.105,-7.019c8.058,0 13.322,2.6 15.791,7.798c2.469,5.199 3.704,13.777 3.704,25.734l0,34.311c-13.257,7.538 -24.954,14.557 -35.091,21.055c-10.138,6.498 -18.651,12.802 -25.539,18.91c-6.888,6.109 -12.022,12.347 -15.401,18.716c-3.379,6.368 -5.069,13.191 -5.069,20.469c0,9.358 2.6,16.831 7.798,22.42c5.199,5.588 12.477,8.383 21.835,8.383c8.318,0 16.311,-2.47 23.979,-7.409c7.668,-4.938 16.441,-11.567 26.318,-19.885l1.56,0c2.339,9.098 4.874,15.662 7.603,19.691c2.729,4.029 6.693,6.043 11.892,6.043c2.599,0 5.654,-0.845 9.163,-2.534c3.509,-1.69 6.823,-3.834 9.942,-6.434c3.119,-2.599 5.784,-5.263 7.993,-7.993c2.21,-2.729 3.314,-5.133 3.314,-7.213c0,-1.819 -0.909,-2.729 -2.729,-2.729c-1.56,0 -3.574,1.429 -6.043,4.289c-2.47,2.859 -5.134,4.289 -7.993,4.289c-7.019,0 -10.528,-8.058 -10.528,-24.174l0,-97.866ZM1245.93,338.269l0,35.871c0,6.499 -1.17,12.282 -3.509,17.351c-2.34,5.069 -5.394,9.358 -9.163,12.867c-3.769,3.509 -7.798,6.173 -12.087,7.993c-4.289,1.819 -8.383,2.729 -12.282,2.729c-6.498,0 -11.567,-2.144 -15.206,-6.433c-3.639,-4.289 -5.459,-10.073 -5.459,-17.351c0,-17.156 13.257,-33.402 39.77,-48.738l11.697,-6.628c1.82,-1.04 3.12,-1.56 3.899,-1.56c1.56,0 2.34,1.3 2.34,3.899Z" style="fill:#369;fill-rule:nonzero;"/></g></g></g></svg>