<?xml version="1.0" standalone="no"?><!DOCTYPE svg PUBLIC "-//W3C//DTD SVG 1.1//EN" "http://www.w3.org/Graphics/SVG/1.1/DTD/svg11.dtd"><svg width="100%" height="100%" viewBox="0 0 75 49" version="1.1" xmlns="http://www.w3.org/2000/svg" xmlns:xlink="http://www.w3.org/1999/xlink" xml:space="preserve" style="fill-rule:evenodd;clip-rule:evenodd;stroke-linejoin:round;stroke-miterlimit:1.41421;"><path d="M27.331,7.565c1.463,-1.078 3.218,-1.899 5.07,-1.864c1.752,0.029 3.392,0.931 4.581,2.18c1.647,1.68 2.811,3.89 3.013,6.252c-0.097,1.844 -0.845,3.646 -2.033,5.057c-1.531,1.819 -3.547,3.231 -5.791,4.017c-0.783,-3.256 -2.279,-6.43 -4.742,-8.75c-0.731,-0.679 -1.541,-1.302 -2.476,-1.669c-2.871,2.319 -4.238,5.86 -5.568,9.182c0.004,-0.294 -0.003,-0.589 0.055,-0.878c0.602,-2.985 1.756,-5.856 3.363,-8.44c1.213,-1.929 2.7,-3.713 4.528,-5.087Z" style="fill:#369;fill-rule:nonzero;"/><path d="M13.232,9.743c2.007,-0.826 4.107,-1.435 6.244,-1.808c-2.912,1.224 -5.967,2.253 -8.523,4.165c-1.386,1.056 -2.652,2.466 -2.987,4.229c-0.162,1.114 -0.165,2.352 0.505,3.314c0.97,1.433 2.584,2.244 4.161,2.837c3.045,1.072 6.286,1.495 9.501,1.586c1.647,0.154 3.297,-0.015 4.944,-0.081c1.4,-0.08 2.775,-0.34 4.158,-0.549c-1.172,4.481 -2.453,8.967 -4.436,13.17c-0.917,0.048 -1.796,-0.246 -2.702,-0.335c-3.776,-0.491 -7.344,-2.267 -10.1,-4.881c-3.075,-2.888 -5.317,-6.604 -6.687,-10.578c-0.806,-2.227 -0.858,-4.894 0.476,-6.933c1.26,-1.973 3.342,-3.23 5.446,-4.136Z" style="fill:#369;fill-rule:nonzero;"/><path d="M38.732,23.718c0.293,-0.725 0.678,-1.417 0.862,-2.181c-0.03,0.323 -0.066,0.646 -0.154,0.962c-0.942,3.205 -2.156,6.4 -4.186,9.087c-1.339,1.786 -3.112,3.293 -5.218,4.088c-0.605,0.234 -1.234,0.429 -1.887,0.453c1.547,-1.044 3.108,-2.087 4.501,-3.336c2.755,-2.456 4.622,-5.723 6.082,-9.073Z" style="fill:#369;fill-rule:nonzero;"/><g><path d="M44.952,25.229c0,0.201 0.04,0.357 0.121,0.467c0.08,0.111 0.191,0.166 0.331,0.166c0.181,0 0.342,-0.105 0.482,-0.316c0.141,-0.211 0.211,-0.462 0.211,-0.753c0,-0.161 -0.04,-0.292 -0.121,-0.392c-0.08,-0.1 -0.185,-0.151 -0.316,-0.151c-0.181,0 -0.344,0.103 -0.489,0.309c-0.146,0.206 -0.219,0.429 -0.219,0.67ZM44.967,29.04c0.101,-0.301 0.186,-0.577 0.256,-0.828c0.071,-0.251 0.106,-0.482 0.106,-0.693c0,-0.201 -0.05,-0.357 -0.151,-0.467c-0.1,-0.111 -0.236,-0.166 -0.406,-0.166c-0.392,0 -0.844,0.321 -1.356,0.964c-0.181,0.231 -0.311,0.422 -0.392,0.572c-0.08,0.151 -0.12,0.246 -0.12,0.287c0,0.09 0.025,0.135 0.075,0.135c0.04,0 0.103,-0.063 0.189,-0.188c0.085,-0.126 0.18,-0.266 0.286,-0.422c0.105,-0.155 0.218,-0.296 0.339,-0.422c0.12,-0.125 0.241,-0.188 0.361,-0.188c0.09,0 0.148,0.025 0.173,0.076c0.025,0.05 0.038,0.13 0.038,0.24c0,0.141 -0.03,0.309 -0.09,0.505c-0.061,0.196 -0.136,0.429 -0.226,0.7l-0.618,1.808c-0.191,0.542 -0.341,1.006 -0.452,1.393c-0.11,0.387 -0.165,0.71 -0.165,0.971c0,0.503 0.2,0.754 0.602,0.754c0.201,0 0.417,-0.088 0.648,-0.264c0.231,-0.176 0.462,-0.439 0.693,-0.791c0.401,-0.612 0.602,-1.004 0.602,-1.175c0,-0.07 -0.035,-0.105 -0.105,-0.105c-0.041,0 -0.088,0.063 -0.144,0.188c-0.055,0.126 -0.163,0.324 -0.323,0.595c-0.292,0.512 -0.563,0.768 -0.814,0.768c-0.14,0 -0.211,-0.105 -0.211,-0.316c0,-0.09 0.046,-0.286 0.136,-0.587l1.069,-3.344Z" style="fill:#369;fill-rule:nonzero;"/><path d="M50.841,24.461c0.402,0 0.781,0.103 1.138,0.309c0.356,0.206 0.665,0.507 0.926,0.904c0.261,0.396 0.467,0.881 0.617,1.453c0.151,0.573 0.226,1.22 0.226,1.943c0,0.723 -0.075,1.368 -0.226,1.936c-0.15,0.567 -0.356,1.049 -0.617,1.445c-0.261,0.397 -0.565,0.698 -0.911,0.904c-0.347,0.206 -0.721,0.309 -1.122,0.309c-0.412,0 -0.794,-0.103 -1.145,-0.309c-0.352,-0.206 -0.658,-0.504 -0.919,-0.896c-0.261,-0.392 -0.467,-0.874 -0.617,-1.446c-0.151,-0.572 -0.226,-1.22 -0.226,-1.943c0,-0.723 0.075,-1.37 0.226,-1.943c0.15,-0.572 0.356,-1.057 0.617,-1.453c0.261,-0.397 0.567,-0.698 0.919,-0.904c0.351,-0.206 0.723,-0.309 1.114,-0.309ZM51.82,33.935c0.442,-0.12 0.851,-0.326 1.228,-0.618c0.376,-0.291 0.703,-0.65 0.979,-1.076c0.276,-0.427 0.492,-0.909 0.648,-1.446c0.155,-0.538 0.233,-1.112 0.233,-1.725c0,-0.723 -0.108,-1.391 -0.324,-2.003c-0.216,-0.613 -0.509,-1.142 -0.881,-1.589c-0.371,-0.447 -0.803,-0.796 -1.295,-1.047c-0.492,-0.251 -1.009,-0.376 -1.552,-0.376c-0.542,0 -1.059,0.125 -1.551,0.376c-0.492,0.251 -0.924,0.6 -1.295,1.047c-0.372,0.447 -0.668,0.976 -0.889,1.589c-0.221,0.612 -0.331,1.28 -0.331,2.003c0,0.582 0.073,1.135 0.218,1.657c0.146,0.522 0.352,0.994 0.618,1.416c0.266,0.421 0.585,0.785 0.956,1.092c0.372,0.306 0.783,0.534 1.235,0.685l0.256,0.075c0.091,0.03 0.136,0.141 0.136,0.332l0,0.361c0,0.301 0.07,0.587 0.211,0.859c0.14,0.271 0.346,0.509 0.617,0.715c0.271,0.206 0.598,0.369 0.979,0.49c0.382,0.12 0.814,0.18 1.295,0.18c0.452,0 0.831,-0.068 1.138,-0.203c0.306,-0.136 0.459,-0.284 0.459,-0.444c0,-0.111 -0.06,-0.166 -0.181,-0.166c-0.08,0 -0.216,0.045 -0.406,0.135c-0.191,0.091 -0.432,0.136 -0.723,0.136c-0.251,0 -0.497,-0.04 -0.738,-0.12c-0.241,-0.081 -0.46,-0.194 -0.656,-0.339c-0.195,-0.146 -0.361,-0.319 -0.497,-0.52c-0.135,-0.201 -0.228,-0.417 -0.278,-0.648l-0.091,-0.436c0,-0.02 -0.002,-0.036 -0.007,-0.046c-0.005,-0.01 -0.008,-0.02 -0.008,-0.03c0,-0.12 0.061,-0.195 0.181,-0.226l0.316,-0.09Z" style="fill:#369;fill-rule:nonzero;"/><path d="M57.318,27.669c0,-0.221 -0.013,-0.356 -0.038,-0.406c-0.025,-0.05 -0.093,-0.076 -0.203,-0.076c-0.08,0 -0.163,0.005 -0.249,0.015c-0.085,0.011 -0.183,0.016 -0.293,0.016c-0.211,0 -0.374,-0.005 -0.49,-0.016c-0.115,-0.01 -0.183,-0.015 -0.203,-0.015c-0.05,0 -0.088,0.008 -0.113,0.023c-0.025,0.015 -0.038,0.058 -0.038,0.128c0,0.08 0.04,0.126 0.121,0.136c0.08,0.01 0.17,0.03 0.271,0.06c0.1,0.03 0.191,0.085 0.271,0.166c0.08,0.08 0.12,0.22 0.12,0.421l0,3.254c0,0.321 0.015,0.627 0.046,0.918c0.03,0.291 0.115,0.573 0.256,0.844c0.14,0.301 0.349,0.537 0.625,0.708c0.276,0.17 0.585,0.256 0.926,0.256c0.251,0 0.479,-0.048 0.685,-0.143c0.206,-0.096 0.409,-0.234 0.61,-0.415c0.201,-0.17 0.342,-0.328 0.422,-0.474c0.08,-0.146 0.141,-0.218 0.181,-0.218c0.03,0 0.045,0.06 0.045,0.18l0,0.708c0,0.111 0.007,0.199 0.023,0.264c0.015,0.065 0.052,0.098 0.113,0.098c0.08,0 0.175,-0.048 0.286,-0.143c0.11,-0.096 0.256,-0.194 0.436,-0.294c0.151,-0.08 0.282,-0.143 0.392,-0.188c0.111,-0.046 0.166,-0.108 0.166,-0.189c0,-0.07 -0.035,-0.105 -0.106,-0.105c-0.06,0 -0.128,-0.005 -0.203,-0.015c-0.075,-0.01 -0.143,-0.05 -0.203,-0.121c-0.061,-0.07 -0.091,-0.21 -0.091,-0.421l0,-4.956c0,-0.21 -0.01,-0.344 -0.03,-0.399c-0.02,-0.055 -0.085,-0.083 -0.196,-0.083c-0.05,0 -0.135,0.005 -0.256,0.015c-0.12,0.011 -0.266,0.016 -0.436,0.016c-0.151,0 -0.272,-0.005 -0.362,-0.016c-0.09,-0.01 -0.156,-0.015 -0.196,-0.015c-0.05,0 -0.088,0.008 -0.113,0.023c-0.025,0.015 -0.037,0.058 -0.037,0.128c0,0.08 0.04,0.126 0.12,0.136c0.08,0.01 0.171,0.03 0.271,0.06c0.101,0.03 0.191,0.085 0.271,0.166c0.081,0.08 0.121,0.22 0.121,0.421l0,2.741c0,0.874 -0.121,1.529 -0.362,1.966c-0.241,0.437 -0.632,0.655 -1.174,0.655c-0.523,0 -0.884,-0.196 -1.085,-0.587c-0.201,-0.392 -0.301,-0.979 -0.301,-1.762l0,-3.465Z" style="fill:#369;fill-rule:nonzero;"/><path d="M66.536,28.618c0,-0.261 -0.01,-0.497 -0.031,-0.708c-0.02,-0.21 -0.075,-0.391 -0.165,-0.542c-0.091,-0.15 -0.226,-0.266 -0.407,-0.346c-0.181,-0.081 -0.427,-0.121 -0.738,-0.121c-0.392,0 -0.753,0.076 -1.084,0.226c-0.332,0.151 -0.618,0.337 -0.859,0.557c-0.241,0.221 -0.427,0.452 -0.557,0.693c-0.131,0.241 -0.196,0.452 -0.196,0.633c0,0.08 0.025,0.143 0.075,0.188c0.051,0.045 0.111,0.068 0.181,0.068c0.281,0 0.477,-0.108 0.588,-0.324c0.11,-0.216 0.22,-0.479 0.331,-0.791c0.09,-0.251 0.251,-0.467 0.482,-0.647c0.231,-0.181 0.477,-0.271 0.738,-0.271c0.311,0 0.514,0.1 0.61,0.301c0.095,0.201 0.143,0.532 0.143,0.994l0,1.325c-0.512,0.292 -0.964,0.563 -1.356,0.814c-0.391,0.251 -0.72,0.494 -0.986,0.73c-0.266,0.236 -0.465,0.477 -0.595,0.723c-0.131,0.246 -0.196,0.51 -0.196,0.791c0,0.361 0.101,0.65 0.301,0.866c0.201,0.216 0.482,0.324 0.844,0.324c0.321,0 0.63,-0.096 0.926,-0.286c0.296,-0.191 0.635,-0.447 1.017,-0.769l0.06,0c0.09,0.352 0.188,0.605 0.294,0.761c0.105,0.156 0.258,0.233 0.459,0.233c0.1,0 0.218,-0.032 0.354,-0.097c0.136,-0.066 0.264,-0.149 0.384,-0.249c0.121,-0.1 0.224,-0.203 0.309,-0.309c0.085,-0.105 0.128,-0.198 0.128,-0.278c0,-0.071 -0.035,-0.106 -0.106,-0.106c-0.06,0 -0.138,0.055 -0.233,0.166c-0.095,0.11 -0.198,0.166 -0.309,0.166c-0.271,0 -0.406,-0.312 -0.406,-0.934l0,-3.781ZM65.662,30.456l0,1.385c0,0.251 -0.045,0.475 -0.136,0.671c-0.09,0.195 -0.208,0.361 -0.353,0.497c-0.146,0.135 -0.302,0.238 -0.467,0.308c-0.166,0.071 -0.324,0.106 -0.475,0.106c-0.251,0 -0.447,-0.083 -0.587,-0.249c-0.141,-0.165 -0.211,-0.389 -0.211,-0.67c0,-0.663 0.512,-1.29 1.536,-1.883l0.452,-0.256c0.07,-0.04 0.121,-0.06 0.151,-0.06c0.06,0 0.09,0.05 0.09,0.151Z" style="fill:#369;fill-rule:nonzero;"/></g><g><path d="M29.248,38.439l0,-0.014c0,-0.055 -0.018,-0.083 -0.053,-0.083c-0.017,0 -0.028,0.005 -0.034,0.015c-0.007,0.009 -0.012,0.022 -0.017,0.036c-0.005,0.015 -0.012,0.03 -0.02,0.046c-0.008,0.016 -0.018,0.031 -0.031,0.044c-0.023,0.023 -0.128,0.034 -0.316,0.034c-0.074,0 -0.16,-0.001 -0.257,-0.003c-0.097,-0.001 -0.207,-0.002 -0.33,-0.002l-0.582,0c-0.097,0 -0.165,-0.005 -0.204,-0.015c-0.039,-0.009 -0.058,-0.034 -0.058,-0.072l0,-0.049c0,-0.035 -0.015,-0.053 -0.044,-0.053c-0.022,0 -0.037,0.008 -0.043,0.024c-0.007,0.016 -0.013,0.037 -0.02,0.063l-0.155,0.621c-0.007,0.02 -0.012,0.037 -0.015,0.054c-0.003,0.016 -0.005,0.032 -0.005,0.048c0,0.049 0.015,0.073 0.044,0.073c0.032,0 0.058,-0.028 0.078,-0.085c0.019,-0.057 0.056,-0.127 0.111,-0.211c0.059,-0.087 0.13,-0.156 0.214,-0.206c0.084,-0.05 0.165,-0.076 0.242,-0.076l0.18,0c0.029,0 0.047,0.01 0.053,0.03c0.007,0.019 0.01,0.045 0.01,0.077l0,2.378c0,0.055 -0.001,0.099 -0.002,0.131c-0.002,0.032 -0.008,0.06 -0.017,0.082c-0.01,0.023 -0.026,0.04 -0.049,0.051c-0.022,0.012 -0.053,0.022 -0.092,0.032c-0.026,0.006 -0.05,0.01 -0.073,0.01c-0.022,0 -0.044,0.001 -0.063,0.005c-0.019,0.003 -0.035,0.009 -0.046,0.019c-0.011,0.01 -0.017,0.026 -0.017,0.048c0,0.052 0.036,0.078 0.107,0.078c0.035,0 0.088,-0.004 0.157,-0.012c0.07,-0.008 0.157,-0.012 0.26,-0.012c0.104,0 0.191,0.004 0.262,0.012c0.071,0.008 0.125,0.012 0.16,0.012c0.071,0 0.107,-0.023 0.107,-0.068c0,-0.026 -0.006,-0.044 -0.017,-0.053c-0.011,-0.01 -0.027,-0.017 -0.046,-0.022c-0.02,-0.005 -0.042,-0.007 -0.068,-0.007c-0.023,0 -0.045,-0.004 -0.068,-0.01c-0.078,-0.019 -0.124,-0.046 -0.138,-0.08c-0.015,-0.034 -0.022,-0.095 -0.022,-0.182l0,-2.412c0,-0.032 0.003,-0.058 0.01,-0.077c0.006,-0.02 0.024,-0.03 0.053,-0.03l0.126,0c0.084,0 0.155,0.005 0.214,0.015c0.058,0.01 0.106,0.024 0.145,0.044c0.039,0.019 0.071,0.044 0.097,0.075c0.026,0.031 0.047,0.069 0.063,0.114c0.02,0.048 0.033,0.092 0.039,0.131c0.007,0.039 0.012,0.071 0.017,0.097c0.005,0.026 0.012,0.046 0.022,0.061c0.01,0.014 0.024,0.022 0.044,0.022c0.019,0 0.031,-0.007 0.036,-0.02c0.005,-0.013 0.009,-0.032 0.012,-0.058l0.039,-0.67Z" style="fill:#a2a2a2;fill-rule:nonzero;"/><path d="M29.903,38.318c0,-0.071 -0.011,-0.107 -0.034,-0.107c-0.016,0 -0.046,0.016 -0.09,0.046c-0.043,0.031 -0.107,0.061 -0.191,0.09c-0.052,0.016 -0.097,0.028 -0.136,0.034c-0.039,0.006 -0.058,0.028 -0.058,0.063c0,0.029 0.011,0.044 0.034,0.044c0.016,0 0.028,-0.001 0.036,-0.003c0.008,-0.001 0.014,-0.002 0.017,-0.002c0.1,0 0.15,0.073 0.15,0.218l0,2.572c0,0.065 -0.013,0.109 -0.038,0.134c-0.026,0.024 -0.055,0.041 -0.088,0.05c-0.032,0.01 -0.061,0.017 -0.087,0.022c-0.026,0.005 -0.039,0.021 -0.039,0.046c0,0.026 0.007,0.041 0.019,0.044c0.013,0.003 0.034,0.005 0.064,0.005c0.035,0 0.078,-0.003 0.128,-0.01c0.05,-0.006 0.109,-0.009 0.177,-0.009c0.084,0 0.152,0.003 0.204,0.009c0.052,0.007 0.089,0.01 0.112,0.01c0.026,0 0.044,-0.002 0.055,-0.007c0.012,-0.005 0.017,-0.019 0.017,-0.042c0,-0.025 -0.013,-0.041 -0.038,-0.046c-0.026,-0.005 -0.055,-0.011 -0.088,-0.019c-0.032,-0.008 -0.061,-0.024 -0.087,-0.049c-0.026,-0.024 -0.039,-0.07 -0.039,-0.138l0,-0.888c0,-0.278 0.04,-0.488 0.119,-0.631c0.079,-0.142 0.211,-0.213 0.395,-0.213c0.175,0 0.296,0.063 0.364,0.189c0.068,0.126 0.102,0.315 0.102,0.568l0,0.975c0,0.065 -0.013,0.109 -0.041,0.134c-0.027,0.024 -0.057,0.041 -0.087,0.05c-0.031,0.01 -0.06,0.017 -0.088,0.022c-0.027,0.005 -0.041,0.021 -0.041,0.046c0,0.026 0.007,0.041 0.02,0.044c0.012,0.003 0.034,0.005 0.063,0.005c0.035,0 0.078,-0.003 0.128,-0.01c0.05,-0.006 0.109,-0.009 0.177,-0.009c0.084,0 0.152,0.003 0.204,0.009c0.052,0.007 0.089,0.01 0.112,0.01c0.026,0 0.044,-0.002 0.056,-0.007c0.011,-0.005 0.017,-0.019 0.017,-0.042c0,-0.025 -0.013,-0.041 -0.039,-0.046c-0.026,-0.005 -0.055,-0.011 -0.088,-0.019c-0.032,-0.008 -0.061,-0.024 -0.087,-0.049c-0.026,-0.024 -0.039,-0.07 -0.039,-0.138l0,-1.213c0,-0.214 -0.056,-0.386 -0.17,-0.517c-0.113,-0.131 -0.26,-0.196 -0.441,-0.196c-0.088,0 -0.163,0.014 -0.226,0.043c-0.063,0.029 -0.128,0.073 -0.196,0.131c-0.065,0.055 -0.111,0.106 -0.139,0.153c-0.027,0.047 -0.047,0.071 -0.06,0.071c-0.01,0 -0.015,-0.018 -0.015,-0.054l0,-1.373Z" style="fill:#a2a2a2;fill-rule:nonzero;"/><path d="M32.422,40.089l-0.398,0c-0.017,0 -0.029,-0.005 -0.039,-0.014c-0.01,-0.01 -0.015,-0.02 -0.015,-0.03c0,-0.068 0.016,-0.137 0.049,-0.208c0.032,-0.071 0.075,-0.136 0.128,-0.194c0.054,-0.059 0.116,-0.107 0.187,-0.146c0.071,-0.039 0.146,-0.058 0.223,-0.058c0.062,0 0.12,0.013 0.175,0.039c0.055,0.026 0.103,0.06 0.143,0.102c0.041,0.042 0.072,0.089 0.095,0.14c0.023,0.052 0.034,0.104 0.034,0.156c0,0.093 -0.047,0.152 -0.141,0.177c-0.094,0.024 -0.241,0.036 -0.441,0.036ZM33.174,40.206c0.055,0 0.093,-0.009 0.114,-0.025c0.021,-0.016 0.031,-0.042 0.031,-0.077c0,-0.097 -0.017,-0.192 -0.051,-0.284c-0.034,-0.092 -0.082,-0.173 -0.145,-0.243c-0.063,-0.069 -0.14,-0.125 -0.231,-0.167c-0.09,-0.042 -0.192,-0.063 -0.305,-0.063c-0.13,0 -0.253,0.026 -0.369,0.08c-0.117,0.053 -0.219,0.13 -0.306,0.23c-0.087,0.1 -0.157,0.223 -0.209,0.367c-0.051,0.144 -0.077,0.304 -0.077,0.482c0,0.175 0.022,0.334 0.065,0.476c0.044,0.142 0.106,0.264 0.187,0.364c0.081,0.1 0.177,0.178 0.289,0.233c0.111,0.055 0.234,0.082 0.366,0.082c0.117,0 0.223,-0.019 0.318,-0.058c0.095,-0.039 0.176,-0.085 0.243,-0.138c0.066,-0.054 0.117,-0.109 0.152,-0.165c0.036,-0.057 0.054,-0.103 0.054,-0.139c0,-0.025 -0.011,-0.038 -0.034,-0.038c-0.01,0 -0.028,0.016 -0.053,0.048c-0.026,0.033 -0.062,0.068 -0.107,0.107c-0.046,0.039 -0.103,0.074 -0.173,0.107c-0.069,0.032 -0.154,0.048 -0.254,0.048c-0.11,0 -0.211,-0.023 -0.304,-0.07c-0.092,-0.047 -0.171,-0.114 -0.237,-0.202c-0.067,-0.087 -0.118,-0.194 -0.156,-0.32c-0.037,-0.126 -0.055,-0.27 -0.055,-0.432c0,-0.081 0.004,-0.135 0.014,-0.162c0.01,-0.028 0.036,-0.041 0.078,-0.041l1.155,0Z" style="fill:#a2a2a2;fill-rule:nonzero;"/><path d="M35.173,38.803c0,0.065 0.013,0.115 0.039,0.151c0.026,0.035 0.061,0.053 0.106,0.053c0.059,0 0.11,-0.034 0.156,-0.102c0.045,-0.068 0.068,-0.149 0.068,-0.243c0,-0.051 -0.013,-0.093 -0.039,-0.126c-0.026,-0.032 -0.06,-0.048 -0.102,-0.048c-0.058,0 -0.111,0.033 -0.158,0.099c-0.047,0.067 -0.07,0.139 -0.07,0.216ZM35.178,40.031c0.032,-0.097 0.06,-0.186 0.082,-0.267c0.023,-0.081 0.034,-0.155 0.034,-0.223c0,-0.065 -0.016,-0.115 -0.048,-0.151c-0.033,-0.035 -0.076,-0.053 -0.131,-0.053c-0.126,0 -0.272,0.103 -0.437,0.311c-0.058,0.074 -0.1,0.135 -0.126,0.184c-0.026,0.048 -0.039,0.079 -0.039,0.092c0,0.029 0.008,0.044 0.024,0.044c0.013,0 0.033,-0.02 0.061,-0.061c0.027,-0.04 0.058,-0.086 0.092,-0.136c0.034,-0.05 0.07,-0.095 0.109,-0.136c0.039,-0.04 0.078,-0.06 0.117,-0.06c0.029,0 0.047,0.008 0.056,0.024c0.008,0.016 0.012,0.042 0.012,0.078c0,0.045 -0.01,0.099 -0.029,0.162c-0.02,0.063 -0.044,0.138 -0.073,0.226l-0.199,0.582c-0.062,0.175 -0.11,0.324 -0.146,0.449c-0.035,0.125 -0.053,0.229 -0.053,0.313c0,0.162 0.065,0.243 0.194,0.243c0.065,0 0.134,-0.029 0.209,-0.085c0.074,-0.057 0.148,-0.142 0.223,-0.255c0.129,-0.197 0.194,-0.324 0.194,-0.379c0,-0.022 -0.011,-0.034 -0.034,-0.034c-0.013,0 -0.028,0.021 -0.046,0.061c-0.018,0.041 -0.053,0.104 -0.104,0.192c-0.094,0.165 -0.182,0.247 -0.262,0.247c-0.046,0 -0.068,-0.034 -0.068,-0.102c0,-0.029 0.014,-0.092 0.043,-0.189l0.345,-1.077Z" style="fill:#a2a2a2;fill-rule:nonzero;"/><path d="M36.381,40.011c0.036,-0.122 0.058,-0.224 0.068,-0.303c0.01,-0.079 0.015,-0.13 0.015,-0.153c0,-0.152 -0.055,-0.228 -0.165,-0.228c-0.13,0 -0.288,0.112 -0.476,0.335c-0.074,0.084 -0.127,0.155 -0.158,0.214c-0.03,0.058 -0.046,0.092 -0.046,0.101c0,0.03 0.012,0.044 0.034,0.044c0.016,0 0.04,-0.023 0.071,-0.068c0.03,-0.045 0.065,-0.094 0.104,-0.148c0.039,-0.053 0.081,-0.103 0.126,-0.148c0.045,-0.045 0.091,-0.068 0.136,-0.068c0.045,0 0.068,0.031 0.068,0.092c0,0.059 -0.013,0.141 -0.039,0.248c-0.026,0.107 -0.061,0.239 -0.107,0.398l-0.334,1.126c-0.013,0.038 -0.02,0.063 -0.02,0.072c0,0.01 0.004,0.02 0.012,0.03c0.008,0.009 0.017,0.014 0.027,0.014l0.209,0c0.029,0 0.051,-0.02 0.068,-0.061c0.016,-0.04 0.035,-0.099 0.058,-0.177c0.022,-0.077 0.052,-0.172 0.087,-0.284c0.036,-0.111 0.087,-0.24 0.155,-0.385c0.081,-0.175 0.169,-0.333 0.262,-0.473c0.094,-0.141 0.186,-0.261 0.277,-0.36c0.091,-0.098 0.173,-0.174 0.248,-0.228c0.074,-0.053 0.134,-0.08 0.179,-0.08c0.094,0 0.141,0.052 0.141,0.156c0,0.019 -0.003,0.048 -0.01,0.087c-0.006,0.039 -0.019,0.086 -0.039,0.141l-0.199,0.582c-0.081,0.233 -0.14,0.426 -0.177,0.58c-0.037,0.154 -0.056,0.268 -0.056,0.342c0,0.149 0.059,0.223 0.175,0.223c0.065,0 0.141,-0.03 0.228,-0.09c0.088,-0.059 0.173,-0.151 0.257,-0.274c0.075,-0.107 0.129,-0.193 0.163,-0.259c0.034,-0.067 0.051,-0.108 0.051,-0.124c0,-0.029 -0.01,-0.044 -0.029,-0.044c-0.016,0 -0.033,0.019 -0.051,0.056c-0.018,0.037 -0.054,0.096 -0.109,0.177c-0.065,0.097 -0.123,0.171 -0.173,0.221c-0.05,0.05 -0.099,0.075 -0.148,0.075c-0.048,0 -0.072,-0.035 -0.072,-0.107c0,-0.025 0.008,-0.063 0.024,-0.111l0.378,-1.121c0.062,-0.181 0.093,-0.32 0.093,-0.417c0,-0.085 -0.026,-0.151 -0.078,-0.199c-0.052,-0.049 -0.125,-0.073 -0.218,-0.073c-0.162,0 -0.339,0.094 -0.529,0.284c-0.191,0.189 -0.395,0.476 -0.612,0.861l0.131,-0.476Z" style="fill:#a2a2a2;fill-rule:nonzero;"/><path d="M38.88,39.026c0.016,-0.058 0.024,-0.093 0.024,-0.106c0,-0.033 -0.032,-0.049 -0.097,-0.049c-0.061,0 -0.106,0.007 -0.133,0.02c-0.028,0.012 -0.048,0.042 -0.061,0.087l-0.121,0.456l-0.306,0c-0.039,0 -0.058,0.029 -0.058,0.087c0,0.007 0.003,0.013 0.01,0.02c0.006,0.006 0.014,0.009 0.024,0.009l0.296,0l-0.262,0.932c-0.123,0.434 -0.184,0.73 -0.184,0.888c0,0.078 0.015,0.138 0.046,0.182c0.03,0.044 0.07,0.066 0.119,0.066c0.055,0 0.123,-0.033 0.203,-0.097c0.081,-0.065 0.164,-0.161 0.248,-0.287c0.11,-0.161 0.165,-0.267 0.165,-0.315c0,-0.032 -0.013,-0.049 -0.039,-0.049c-0.023,0 -0.04,0.019 -0.051,0.056c-0.011,0.037 -0.04,0.09 -0.085,0.158c-0.11,0.168 -0.187,0.252 -0.233,0.252c-0.016,0 -0.031,-0.01 -0.046,-0.029c-0.014,-0.019 -0.022,-0.045 -0.022,-0.078c0,-0.048 0.015,-0.13 0.044,-0.245c0.029,-0.114 0.068,-0.264 0.116,-0.448l0.262,-0.986l0.355,0c0.039,0 0.058,-0.029 0.058,-0.087c0,-0.019 -0.011,-0.029 -0.034,-0.029l-0.354,0l0.116,-0.408Z" style="fill:#a2a2a2;fill-rule:nonzero;"/><path d="M39.448,40.536c0.042,-0.178 0.095,-0.337 0.158,-0.476c0.063,-0.139 0.13,-0.256 0.201,-0.352c0.071,-0.095 0.145,-0.167 0.221,-0.216c0.076,-0.048 0.151,-0.073 0.225,-0.073c0.075,0 0.134,0.028 0.178,0.083c0.043,0.055 0.065,0.128 0.065,0.218c0,0.224 -0.09,0.411 -0.269,0.563c-0.18,0.152 -0.439,0.236 -0.779,0.253ZM39.438,40.652c0.443,-0.036 0.777,-0.125 1.002,-0.267c0.225,-0.142 0.338,-0.333 0.338,-0.573c0,-0.142 -0.046,-0.258 -0.136,-0.349c-0.091,-0.09 -0.209,-0.136 -0.355,-0.136c-0.122,0 -0.251,0.037 -0.385,0.112c-0.135,0.074 -0.263,0.187 -0.386,0.34c-0.133,0.161 -0.233,0.332 -0.301,0.511c-0.068,0.18 -0.102,0.359 -0.102,0.537c0,0.126 0.016,0.241 0.049,0.344c0.032,0.104 0.076,0.192 0.133,0.265c0.057,0.072 0.123,0.129 0.199,0.169c0.076,0.041 0.158,0.061 0.245,0.061c0.227,0 0.445,-0.136 0.655,-0.407c0.052,-0.068 0.09,-0.127 0.114,-0.175c0.024,-0.049 0.037,-0.086 0.037,-0.112c0,-0.032 -0.01,-0.048 -0.029,-0.048c-0.03,0 -0.051,0.019 -0.064,0.058c-0.013,0.039 -0.043,0.087 -0.092,0.146c-0.165,0.197 -0.335,0.296 -0.509,0.296c-0.126,0 -0.229,-0.049 -0.308,-0.146c-0.08,-0.097 -0.119,-0.236 -0.119,-0.417c0,-0.036 0.005,-0.106 0.014,-0.209Z" style="fill:#a2a2a2;fill-rule:nonzero;"/><path d="M41.661,40.016c0.029,-0.113 0.048,-0.21 0.058,-0.291c0.01,-0.081 0.014,-0.134 0.014,-0.16c0,-0.074 -0.014,-0.13 -0.043,-0.167c-0.029,-0.038 -0.068,-0.056 -0.117,-0.056c-0.119,0 -0.267,0.103 -0.441,0.31c-0.075,0.088 -0.128,0.16 -0.16,0.219c-0.033,0.058 -0.049,0.094 -0.049,0.106c0,0.033 0.011,0.049 0.034,0.049c0.013,0 0.035,-0.022 0.066,-0.066c0.03,-0.043 0.064,-0.092 0.101,-0.145c0.038,-0.053 0.077,-0.103 0.119,-0.148c0.042,-0.045 0.084,-0.068 0.127,-0.068c0.048,0 0.072,0.031 0.072,0.092c0,0.045 -0.006,0.1 -0.019,0.165c-0.013,0.065 -0.031,0.141 -0.053,0.228l-0.36,1.369c-0.009,0.035 -0.014,0.056 -0.014,0.063c0,0.039 0.039,0.058 0.116,0.058c0.042,0 0.073,-0.004 0.093,-0.012c0.019,-0.008 0.036,-0.027 0.051,-0.056c0.014,-0.029 0.03,-0.071 0.048,-0.126c0.018,-0.055 0.045,-0.13 0.08,-0.223c0.197,-0.512 0.37,-0.893 0.517,-1.146c0.147,-0.252 0.248,-0.378 0.303,-0.378c0.02,0 0.037,0.01 0.054,0.031c0.016,0.022 0.024,0.05 0.024,0.085c0,0.046 0.012,0.08 0.036,0.105c0.024,0.024 0.056,0.036 0.095,0.036c0.048,0 0.092,-0.026 0.131,-0.078c0.039,-0.051 0.058,-0.118 0.058,-0.198c0,-0.075 -0.02,-0.134 -0.061,-0.178c-0.04,-0.043 -0.088,-0.065 -0.143,-0.065c-0.136,0 -0.277,0.112 -0.424,0.335c-0.148,0.223 -0.313,0.561 -0.498,1.014l0.185,-0.704Z" style="fill:#a2a2a2;fill-rule:nonzero;"/><path d="M44.81,38.26c0.006,-0.016 0.01,-0.029 0.012,-0.037c0.002,-0.008 0.003,-0.012 0.003,-0.012c0,-0.029 -0.01,-0.044 -0.03,-0.044c-0.025,0 -0.055,0.013 -0.087,0.039c-0.032,0.026 -0.082,0.05 -0.15,0.073c-0.088,-0.055 -0.19,-0.082 -0.306,-0.082c-0.282,0 -0.518,0.102 -0.711,0.308c-0.192,0.205 -0.331,0.515 -0.415,0.929l-0.247,0c-0.039,0 -0.059,0.032 -0.059,0.097c0,0.019 0.012,0.029 0.034,0.029l0.248,0l-0.495,2.227c-0.062,0.275 -0.12,0.479 -0.175,0.612c-0.055,0.132 -0.115,0.199 -0.179,0.199c-0.036,0 -0.06,-0.007 -0.073,-0.02c-0.013,-0.013 -0.022,-0.03 -0.027,-0.053c-0.005,-0.023 -0.007,-0.05 -0.007,-0.082c0,-0.033 -0.003,-0.067 -0.01,-0.102c-0.006,-0.033 -0.025,-0.062 -0.056,-0.088c-0.03,-0.026 -0.063,-0.039 -0.099,-0.039c-0.049,0 -0.088,0.019 -0.119,0.056c-0.031,0.037 -0.046,0.088 -0.046,0.153c0,0.078 0.029,0.142 0.087,0.192c0.059,0.05 0.135,0.075 0.228,0.075c0.136,0 0.251,-0.04 0.345,-0.119c0.094,-0.079 0.176,-0.196 0.247,-0.352c0.072,-0.155 0.135,-0.346 0.19,-0.572c0.055,-0.227 0.114,-0.487 0.179,-0.782l0.282,-1.305l0.32,0c0.039,0 0.058,-0.032 0.058,-0.097c0,-0.019 -0.011,-0.029 -0.034,-0.029l-0.315,0c0.094,-0.375 0.206,-0.657 0.337,-0.844c0.131,-0.188 0.277,-0.282 0.439,-0.282c0.075,0 0.134,0.024 0.18,0.073c0.045,0.049 0.068,0.11 0.068,0.184c0,0.026 -0.004,0.055 -0.01,0.088l-0.597,2.169c-0.068,0.252 -0.102,0.451 -0.102,0.597c0,0.142 0.055,0.213 0.165,0.213c0.065,0 0.138,-0.029 0.218,-0.087c0.081,-0.058 0.164,-0.149 0.248,-0.272c0.068,-0.094 0.117,-0.172 0.148,-0.235c0.031,-0.063 0.046,-0.108 0.046,-0.134c0,-0.022 -0.01,-0.034 -0.029,-0.034c-0.013,0 -0.025,0.011 -0.036,0.032c-0.012,0.021 -0.032,0.057 -0.061,0.109c-0.139,0.239 -0.246,0.359 -0.32,0.359c-0.046,0 -0.068,-0.031 -0.068,-0.092c0,-0.042 0.011,-0.107 0.034,-0.194l0.747,-2.824Z" style="fill:#a2a2a2;fill-rule:nonzero;"/><path d="M45.911,39.347c-0.132,0 -0.266,0.034 -0.4,0.104c-0.134,0.07 -0.256,0.165 -0.366,0.286c-0.11,0.122 -0.199,0.267 -0.267,0.437c-0.068,0.17 -0.102,0.353 -0.102,0.551c0,0.139 0.019,0.266 0.058,0.381c0.039,0.115 0.092,0.212 0.158,0.293c0.066,0.081 0.145,0.143 0.235,0.187c0.091,0.044 0.188,0.066 0.291,0.066c0.136,0 0.273,-0.036 0.41,-0.107c0.138,-0.071 0.261,-0.169 0.369,-0.294c0.109,-0.124 0.197,-0.269 0.265,-0.434c0.068,-0.165 0.102,-0.34 0.102,-0.524c0,-0.146 -0.02,-0.277 -0.059,-0.393c-0.038,-0.117 -0.091,-0.216 -0.157,-0.299c-0.067,-0.082 -0.146,-0.145 -0.238,-0.189c-0.092,-0.044 -0.192,-0.065 -0.299,-0.065ZM46.363,40.075c0,0.2 -0.026,0.389 -0.078,0.565c-0.052,0.176 -0.118,0.33 -0.199,0.461c-0.081,0.131 -0.172,0.234 -0.274,0.31c-0.102,0.076 -0.203,0.114 -0.303,0.114c-0.133,0 -0.239,-0.056 -0.318,-0.169c-0.079,-0.114 -0.119,-0.275 -0.119,-0.486c0,-0.161 0.024,-0.328 0.073,-0.499c0.048,-0.172 0.119,-0.337 0.213,-0.495c0.081,-0.136 0.173,-0.239 0.277,-0.309c0.103,-0.069 0.204,-0.104 0.301,-0.104c0.136,0 0.241,0.052 0.315,0.155c0.075,0.104 0.112,0.256 0.112,0.457Z" style="fill:#a2a2a2;fill-rule:nonzero;"/><path d="M48.148,40.715c-0.025,0.136 -0.046,0.252 -0.06,0.349c-0.015,0.097 -0.022,0.178 -0.022,0.243c0,0.239 0.089,0.359 0.267,0.359c0.103,0 0.23,-0.056 0.381,-0.17c0.15,-0.113 0.298,-0.288 0.444,-0.524c0.152,-0.242 0.263,-0.474 0.332,-0.694c0.07,-0.22 0.105,-0.415 0.105,-0.587c0,-0.239 -0.054,-0.359 -0.161,-0.359c-0.035,0 -0.067,0.017 -0.094,0.051c-0.028,0.034 -0.041,0.083 -0.041,0.148c0,0.039 0.005,0.076 0.016,0.112c0.012,0.035 0.025,0.071 0.039,0.106c0.015,0.036 0.029,0.072 0.042,0.11c0.013,0.037 0.019,0.08 0.019,0.128c0,0.11 -0.028,0.248 -0.083,0.415c-0.055,0.167 -0.14,0.344 -0.257,0.531c-0.11,0.175 -0.216,0.305 -0.32,0.389c-0.103,0.084 -0.188,0.126 -0.252,0.126c-0.114,0 -0.17,-0.075 -0.17,-0.223c0,-0.107 0.017,-0.239 0.051,-0.396c0.034,-0.157 0.082,-0.342 0.143,-0.556l0.218,-0.766c0.004,-0.01 0.005,-0.024 0.005,-0.044c0,-0.042 -0.034,-0.063 -0.102,-0.063c-0.087,0 -0.139,0.01 -0.155,0.029c-0.016,0.02 -0.029,0.047 -0.039,0.083l-0.121,0.422c-0.075,0.255 -0.153,0.477 -0.235,0.665c-0.083,0.187 -0.165,0.343 -0.246,0.468c-0.08,0.124 -0.159,0.217 -0.235,0.279c-0.076,0.061 -0.145,0.092 -0.206,0.092c-0.049,0 -0.088,-0.018 -0.119,-0.053c-0.031,-0.036 -0.046,-0.086 -0.046,-0.151c0,-0.051 0.01,-0.115 0.031,-0.191c0.021,-0.076 0.05,-0.168 0.085,-0.275l0.243,-0.776c0.032,-0.1 0.057,-0.187 0.075,-0.26c0.018,-0.072 0.027,-0.131 0.027,-0.177c0,-0.068 -0.015,-0.119 -0.044,-0.155c-0.029,-0.036 -0.066,-0.053 -0.111,-0.053c-0.075,0 -0.148,0.03 -0.219,0.089c-0.071,0.06 -0.15,0.152 -0.238,0.275c-0.1,0.139 -0.15,0.223 -0.15,0.252c0,0.026 0.008,0.039 0.024,0.039c0.023,0 0.049,-0.02 0.078,-0.061c0.029,-0.04 0.059,-0.085 0.09,-0.133c0.03,-0.049 0.063,-0.093 0.097,-0.134c0.034,-0.04 0.069,-0.06 0.104,-0.06c0.036,0 0.053,0.024 0.053,0.072c0,0.01 -0.002,0.033 -0.007,0.068c-0.005,0.036 -0.015,0.08 -0.031,0.131l-0.311,0.99c-0.026,0.084 -0.044,0.162 -0.056,0.233c-0.011,0.071 -0.017,0.133 -0.017,0.184c0,0.114 0.026,0.199 0.078,0.258c0.052,0.058 0.118,0.087 0.199,0.087c0.291,0 0.592,-0.307 0.902,-0.922Z" style="fill:#a2a2a2;fill-rule:nonzero;"/><path d="M51.802,39.347c-0.135,0 -0.262,0.027 -0.378,0.082c-0.117,0.055 -0.218,0.133 -0.303,0.233c-0.086,0.1 -0.152,0.222 -0.199,0.364c-0.047,0.142 -0.071,0.301 -0.071,0.476c0,0.171 0.023,0.328 0.068,0.47c0.046,0.143 0.109,0.265 0.189,0.367c0.081,0.101 0.178,0.181 0.292,0.237c0.113,0.057 0.239,0.085 0.378,0.085c0.155,0 0.295,-0.027 0.417,-0.082c0.123,-0.055 0.228,-0.134 0.313,-0.236c0.086,-0.101 0.152,-0.224 0.197,-0.368c0.045,-0.144 0.068,-0.304 0.068,-0.478c0,-0.172 -0.022,-0.329 -0.066,-0.471c-0.043,-0.142 -0.106,-0.264 -0.189,-0.364c-0.082,-0.1 -0.184,-0.178 -0.306,-0.233c-0.121,-0.055 -0.258,-0.082 -0.41,-0.082ZM51.812,39.434c0.197,0 0.355,0.097 0.473,0.291c0.118,0.194 0.177,0.469 0.177,0.825c0,0.333 -0.058,0.586 -0.174,0.759c-0.117,0.174 -0.279,0.26 -0.486,0.26c-0.093,0 -0.18,-0.025 -0.259,-0.075c-0.079,-0.05 -0.148,-0.123 -0.206,-0.218c-0.059,-0.096 -0.104,-0.211 -0.136,-0.345c-0.033,-0.134 -0.049,-0.287 -0.049,-0.459c0,-0.339 0.059,-0.597 0.177,-0.774c0.118,-0.176 0.279,-0.264 0.483,-0.264Z" style="fill:#a2a2a2;fill-rule:nonzero;"/><path d="M53.52,39.123c0,-0.504 0.094,-0.757 0.282,-0.757c0.042,0 0.079,0.016 0.111,0.047c0.033,0.03 0.063,0.063 0.092,0.099c0.03,0.036 0.058,0.069 0.085,0.099c0.028,0.031 0.055,0.047 0.08,0.047c0.026,0 0.051,-0.029 0.076,-0.085c0.024,-0.057 0.036,-0.119 0.036,-0.187c0,-0.055 -0.032,-0.1 -0.095,-0.134c-0.063,-0.034 -0.149,-0.051 -0.259,-0.051c-0.175,0 -0.335,0.089 -0.481,0.267c-0.08,0.101 -0.129,0.202 -0.145,0.304c-0.016,0.102 -0.028,0.209 -0.034,0.322l-0.015,0.238c-0.003,0.029 -0.009,0.049 -0.019,0.061c-0.01,0.011 -0.024,0.023 -0.044,0.036l-0.102,0.063c-0.016,0.01 -0.028,0.018 -0.036,0.024c-0.008,0.007 -0.012,0.018 -0.012,0.034c0,0.033 0.018,0.049 0.053,0.049l0.092,0c0.029,0 0.047,0.006 0.054,0.017c0.006,0.011 0.009,0.033 0.009,0.065l0,1.592c0,0.065 -0.014,0.109 -0.043,0.134c-0.029,0.024 -0.062,0.041 -0.097,0.05c-0.036,0.01 -0.068,0.017 -0.097,0.022c-0.029,0.005 -0.044,0.021 -0.044,0.046c0,0.023 0.006,0.037 0.019,0.042c0.013,0.005 0.034,0.007 0.063,0.007c0.039,0 0.087,-0.003 0.144,-0.01c0.056,-0.006 0.12,-0.009 0.191,-0.009c0.088,0 0.164,0.003 0.231,0.009c0.066,0.007 0.12,0.01 0.162,0.01c0.052,0 0.078,-0.016 0.078,-0.049c0,-0.029 -0.018,-0.045 -0.053,-0.048c-0.036,-0.003 -0.074,-0.008 -0.114,-0.015c-0.041,-0.006 -0.079,-0.022 -0.114,-0.048c-0.036,-0.026 -0.054,-0.073 -0.054,-0.141l0,-1.592c0,-0.032 0.003,-0.054 0.01,-0.065c0.006,-0.011 0.024,-0.017 0.053,-0.017l0.379,0c0.026,0 0.043,-0.006 0.051,-0.019c0.008,-0.013 0.012,-0.034 0.012,-0.064c0,-0.032 -0.003,-0.054 -0.007,-0.065c-0.005,-0.011 -0.024,-0.017 -0.056,-0.017l-0.379,0c-0.029,0 -0.047,-0.006 -0.053,-0.017c-0.007,-0.011 -0.01,-0.033 -0.01,-0.065l0,-0.229Z" style="fill:#a2a2a2;fill-rule:nonzero;"/><path d="M57.286,39.599c0,0.213 -0.029,0.441 -0.088,0.682c-0.058,0.241 -0.14,0.466 -0.247,0.677c-0.091,0.178 -0.202,0.314 -0.335,0.41c-0.133,0.095 -0.275,0.143 -0.427,0.143c-0.223,0 -0.406,-0.092 -0.548,-0.274c-0.143,-0.183 -0.214,-0.439 -0.214,-0.769c0,-0.214 0.029,-0.434 0.085,-0.66c0.057,-0.227 0.134,-0.435 0.231,-0.626c0.21,-0.405 0.474,-0.607 0.791,-0.607c0.223,0 0.404,0.089 0.543,0.267c0.139,0.178 0.209,0.43 0.209,0.757ZM55.684,41.967c0.068,-0.068 0.14,-0.122 0.216,-0.163c0.076,-0.04 0.153,-0.073 0.231,-0.099c0.077,-0.026 0.153,-0.047 0.225,-0.063c0.073,-0.016 0.142,-0.037 0.207,-0.063c0.155,-0.058 0.297,-0.143 0.424,-0.255c0.128,-0.112 0.239,-0.243 0.333,-0.395c0.093,-0.152 0.166,-0.322 0.218,-0.508c0.052,-0.186 0.078,-0.385 0.078,-0.599c0,-0.21 -0.029,-0.4 -0.085,-0.57c-0.057,-0.17 -0.134,-0.315 -0.231,-0.437c-0.097,-0.121 -0.211,-0.215 -0.342,-0.281c-0.131,-0.066 -0.271,-0.1 -0.42,-0.1c-0.184,0 -0.364,0.046 -0.538,0.136c-0.175,0.091 -0.329,0.216 -0.461,0.376c-0.133,0.16 -0.24,0.351 -0.32,0.57c-0.081,0.22 -0.122,0.458 -0.122,0.714c0,0.385 0.079,0.699 0.236,0.941c0.156,0.243 0.377,0.396 0.662,0.461c-0.217,0.071 -0.398,0.18 -0.544,0.325c-0.174,0.007 -0.311,0.046 -0.41,0.119c-0.098,0.073 -0.148,0.15 -0.148,0.231c0,0.071 0.036,0.106 0.107,0.106c0.049,0 0.098,-0.017 0.148,-0.051c0.05,-0.033 0.099,-0.07 0.146,-0.109c0.047,-0.039 0.092,-0.075 0.136,-0.109c0.043,-0.034 0.083,-0.051 0.119,-0.051c0.035,0 0.083,0.024 0.143,0.071c0.06,0.046 0.136,0.107 0.23,0.181c0.11,0.085 0.213,0.155 0.308,0.212c0.096,0.056 0.208,0.084 0.338,0.084c0.106,0 0.216,-0.028 0.33,-0.084c0.113,-0.057 0.218,-0.14 0.315,-0.25c0.074,-0.084 0.129,-0.16 0.165,-0.226c0.035,-0.066 0.053,-0.117 0.053,-0.153c0,-0.032 -0.011,-0.048 -0.034,-0.048c-0.016,0 -0.03,0.005 -0.041,0.017c-0.011,0.011 -0.023,0.026 -0.036,0.043c-0.013,0.018 -0.028,0.04 -0.044,0.066c-0.016,0.026 -0.039,0.053 -0.068,0.082c-0.074,0.078 -0.146,0.135 -0.216,0.173c-0.069,0.037 -0.146,0.055 -0.23,0.055c-0.094,0 -0.182,-0.017 -0.265,-0.053c-0.082,-0.036 -0.165,-0.075 -0.247,-0.119c-0.083,-0.044 -0.17,-0.084 -0.262,-0.121c-0.093,-0.037 -0.194,-0.056 -0.304,-0.056Z" style="fill:#a2a2a2;fill-rule:nonzero;"/><path d="M58.402,40.497c0.152,-0.444 0.228,-0.756 0.228,-0.937c0,-0.068 -0.016,-0.12 -0.046,-0.158c-0.031,-0.037 -0.074,-0.055 -0.129,-0.055c-0.142,0 -0.301,0.118 -0.475,0.354c-0.101,0.139 -0.151,0.231 -0.151,0.276c0,0.026 0.012,0.039 0.034,0.039c0.016,0 0.037,-0.021 0.063,-0.063c0.026,-0.042 0.056,-0.088 0.09,-0.138c0.034,-0.05 0.073,-0.096 0.116,-0.138c0.044,-0.042 0.09,-0.063 0.139,-0.063c0.045,0 0.068,0.035 0.068,0.106c0,0.023 -0.008,0.059 -0.025,0.107l-0.378,1.126c-0.062,0.181 -0.092,0.32 -0.092,0.417c0,0.081 0.026,0.147 0.077,0.197c0.052,0.05 0.125,0.075 0.219,0.075c0.162,0 0.338,-0.095 0.529,-0.284c0.191,-0.189 0.394,-0.476 0.611,-0.861l-0.126,0.47c-0.032,0.12 -0.054,0.219 -0.066,0.296c-0.011,0.078 -0.017,0.133 -0.017,0.165c0,0.152 0.055,0.228 0.165,0.228c0.13,0 0.287,-0.11 0.471,-0.33c0.071,-0.084 0.123,-0.155 0.155,-0.213c0.033,-0.058 0.049,-0.092 0.049,-0.102c0,-0.013 -0.003,-0.024 -0.01,-0.034c-0.006,-0.01 -0.013,-0.014 -0.019,-0.014c-0.02,0 -0.045,0.022 -0.075,0.067c-0.031,0.046 -0.066,0.095 -0.105,0.148c-0.039,0.054 -0.08,0.103 -0.123,0.148c-0.044,0.046 -0.09,0.068 -0.139,0.068c-0.045,0 -0.068,-0.034 -0.068,-0.102c0,-0.103 0.049,-0.315 0.146,-0.635l0.349,-1.165c0.007,-0.026 0.01,-0.042 0.01,-0.048c0,-0.01 -0.006,-0.02 -0.017,-0.029c-0.011,-0.01 -0.023,-0.015 -0.036,-0.015l-0.19,0c-0.029,0 -0.051,0.02 -0.068,0.061c-0.016,0.04 -0.035,0.099 -0.058,0.177c-0.022,0.077 -0.053,0.174 -0.092,0.289c-0.039,0.114 -0.092,0.246 -0.16,0.395c-0.084,0.175 -0.173,0.332 -0.267,0.473c-0.094,0.141 -0.185,0.261 -0.274,0.359c-0.089,0.099 -0.172,0.175 -0.248,0.228c-0.076,0.054 -0.135,0.08 -0.177,0.08c-0.094,0 -0.141,-0.051 -0.141,-0.155c0,-0.039 0.018,-0.115 0.054,-0.228l0.199,-0.582Z" style="fill:#a2a2a2;fill-rule:nonzero;"/><path d="M61.512,39.434c0.088,0 0.156,0.026 0.204,0.078c0.049,0.051 0.073,0.124 0.073,0.218c0,0.188 -0.17,0.531 -0.51,1.029c-0.145,0.213 -0.272,0.374 -0.381,0.483c-0.108,0.108 -0.207,0.162 -0.298,0.162c-0.065,0 -0.118,-0.024 -0.16,-0.073c-0.042,-0.048 -0.063,-0.119 -0.063,-0.213c0,-0.11 0.027,-0.245 0.082,-0.405c0.055,-0.161 0.139,-0.339 0.253,-0.537c0.145,-0.252 0.292,-0.439 0.439,-0.56c0.147,-0.121 0.267,-0.182 0.361,-0.182ZM62.162,39.483c0.017,-0.049 0.025,-0.085 0.025,-0.107c0,-0.036 -0.008,-0.058 -0.025,-0.066c-0.016,-0.008 -0.046,-0.012 -0.092,-0.012c-0.035,0 -0.065,0.007 -0.09,0.022c-0.024,0.015 -0.044,0.031 -0.06,0.048c-0.016,0.018 -0.03,0.034 -0.041,0.049c-0.012,0.015 -0.024,0.022 -0.037,0.022c-0.022,0 -0.06,-0.017 -0.114,-0.051c-0.053,-0.034 -0.124,-0.051 -0.211,-0.051c-0.129,0 -0.279,0.049 -0.449,0.148c-0.17,0.099 -0.335,0.25 -0.497,0.454c-0.172,0.213 -0.299,0.42 -0.381,0.621c-0.083,0.2 -0.124,0.39 -0.124,0.568c0,0.171 0.036,0.302 0.107,0.393c0.071,0.09 0.167,0.135 0.286,0.135c0.162,0 0.335,-0.105 0.519,-0.315c0.185,-0.21 0.398,-0.524 0.641,-0.941l-0.146,0.538c-0.025,0.094 -0.049,0.184 -0.07,0.27c-0.021,0.085 -0.031,0.169 -0.031,0.249c0,0.14 0.051,0.209 0.155,0.209c0.136,0 0.293,-0.129 0.47,-0.388c0.104,-0.146 0.156,-0.252 0.156,-0.32c0,-0.023 -0.008,-0.034 -0.024,-0.034c-0.026,0 -0.046,0.016 -0.059,0.048c-0.013,0.033 -0.04,0.078 -0.082,0.136c-0.097,0.136 -0.173,0.204 -0.228,0.204c-0.036,0 -0.054,-0.034 -0.054,-0.102c0,-0.013 0.004,-0.04 0.01,-0.082c0.007,-0.043 0.019,-0.098 0.039,-0.165l0.407,-1.48Z" style="fill:#a2a2a2;fill-rule:nonzero;"/><path d="M63.497,38.26c0.006,-0.016 0.01,-0.029 0.012,-0.037c0.002,-0.008 0.002,-0.012 0.002,-0.012c0,-0.029 -0.008,-0.044 -0.024,-0.044c-0.029,0 -0.065,0.017 -0.107,0.049c-0.042,0.032 -0.108,0.057 -0.199,0.073c-0.045,0.01 -0.086,0.015 -0.123,0.017c-0.037,0.001 -0.069,0.004 -0.095,0.007c-0.026,0.003 -0.045,0.009 -0.058,0.017c-0.013,0.008 -0.02,0.022 -0.02,0.041c0,0.033 0.026,0.049 0.078,0.049c0.01,0 0.02,-0.001 0.029,-0.003c0.01,-0.001 0.02,-0.002 0.029,-0.002c0.036,0 0.063,0.008 0.083,0.024c0.019,0.016 0.029,0.037 0.029,0.063c0,0.046 -0.011,0.109 -0.034,0.19l-0.592,2.13c-0.068,0.252 -0.102,0.451 -0.102,0.597c0,0.142 0.057,0.213 0.17,0.213c0.058,0 0.128,-0.027 0.209,-0.082c0.08,-0.055 0.156,-0.136 0.228,-0.243c0.071,-0.107 0.125,-0.193 0.162,-0.26c0.037,-0.066 0.056,-0.114 0.056,-0.143c0,-0.022 -0.01,-0.034 -0.029,-0.034c-0.013,0 -0.025,0.012 -0.036,0.034c-0.012,0.023 -0.032,0.059 -0.061,0.107c-0.139,0.239 -0.244,0.359 -0.316,0.359c-0.048,0 -0.072,-0.031 -0.072,-0.092c0,-0.016 0.002,-0.04 0.007,-0.073c0.005,-0.032 0.014,-0.073 0.027,-0.121l0.747,-2.824Z" style="fill:#a2a2a2;fill-rule:nonzero;"/><path d="M64.249,38.803c0,0.065 0.013,0.115 0.039,0.151c0.026,0.035 0.061,0.053 0.107,0.053c0.058,0 0.11,-0.034 0.155,-0.102c0.045,-0.068 0.068,-0.149 0.068,-0.243c0,-0.051 -0.013,-0.093 -0.039,-0.126c-0.026,-0.032 -0.06,-0.048 -0.102,-0.048c-0.058,0 -0.111,0.033 -0.158,0.099c-0.047,0.067 -0.07,0.139 -0.07,0.216ZM64.254,40.031c0.032,-0.097 0.06,-0.186 0.082,-0.267c0.023,-0.081 0.034,-0.155 0.034,-0.223c0,-0.065 -0.016,-0.115 -0.048,-0.151c-0.033,-0.035 -0.076,-0.053 -0.131,-0.053c-0.126,0 -0.272,0.103 -0.437,0.311c-0.058,0.074 -0.1,0.135 -0.126,0.184c-0.026,0.048 -0.039,0.079 -0.039,0.092c0,0.029 0.008,0.044 0.024,0.044c0.013,0 0.034,-0.02 0.061,-0.061c0.028,-0.04 0.058,-0.086 0.092,-0.136c0.034,-0.05 0.071,-0.095 0.109,-0.136c0.039,-0.04 0.078,-0.06 0.117,-0.06c0.029,0 0.048,0.008 0.056,0.024c0.008,0.016 0.012,0.042 0.012,0.078c0,0.045 -0.01,0.099 -0.029,0.162c-0.02,0.063 -0.044,0.138 -0.073,0.226l-0.199,0.582c-0.062,0.175 -0.11,0.324 -0.146,0.449c-0.035,0.125 -0.053,0.229 -0.053,0.313c0,0.162 0.065,0.243 0.194,0.243c0.065,0 0.134,-0.029 0.209,-0.085c0.074,-0.057 0.149,-0.142 0.223,-0.255c0.129,-0.197 0.194,-0.324 0.194,-0.379c0,-0.022 -0.011,-0.034 -0.034,-0.034c-0.013,0 -0.028,0.021 -0.046,0.061c-0.018,0.041 -0.053,0.104 -0.104,0.192c-0.094,0.165 -0.181,0.247 -0.262,0.247c-0.046,0 -0.068,-0.034 -0.068,-0.102c0,-0.029 0.014,-0.092 0.043,-0.189l0.345,-1.077Z" style="fill:#a2a2a2;fill-rule:nonzero;"/><path d="M65.583,39.026c0.017,-0.058 0.025,-0.093 0.025,-0.106c0,-0.033 -0.033,-0.049 -0.097,-0.049c-0.062,0 -0.106,0.007 -0.134,0.02c-0.027,0.012 -0.047,0.042 -0.06,0.087l-0.122,0.456l-0.305,0c-0.039,0 -0.059,0.029 -0.059,0.087c0,0.007 0.004,0.013 0.01,0.02c0.007,0.006 0.015,0.009 0.024,0.009l0.296,0l-0.262,0.932c-0.123,0.434 -0.184,0.73 -0.184,0.888c0,0.078 0.015,0.138 0.046,0.182c0.031,0.044 0.07,0.066 0.119,0.066c0.055,0 0.123,-0.033 0.204,-0.097c0.081,-0.065 0.163,-0.161 0.247,-0.287c0.11,-0.161 0.165,-0.267 0.165,-0.315c0,-0.032 -0.013,-0.049 -0.039,-0.049c-0.022,0 -0.039,0.019 -0.051,0.056c-0.011,0.037 -0.039,0.09 -0.085,0.158c-0.11,0.168 -0.187,0.252 -0.232,0.252c-0.017,0 -0.032,-0.01 -0.047,-0.029c-0.014,-0.019 -0.021,-0.045 -0.021,-0.078c0,-0.048 0.014,-0.13 0.043,-0.245c0.029,-0.114 0.068,-0.264 0.117,-0.448l0.262,-0.986l0.354,0c0.039,0 0.058,-0.029 0.058,-0.087c0,-0.019 -0.011,-0.029 -0.034,-0.029l-0.354,0l0.116,-0.408Z" style="fill:#a2a2a2;fill-rule:nonzero;"/><path d="M66.277,41.86c-0.035,0.11 -0.079,0.206 -0.131,0.289c-0.051,0.082 -0.103,0.152 -0.155,0.209c-0.052,0.056 -0.1,0.098 -0.145,0.126c-0.046,0.027 -0.08,0.041 -0.102,0.041c-0.02,0 -0.039,-0.013 -0.059,-0.039c-0.019,-0.026 -0.04,-0.053 -0.063,-0.082c-0.022,-0.029 -0.048,-0.057 -0.077,-0.083c-0.029,-0.026 -0.063,-0.039 -0.102,-0.039c-0.036,0 -0.066,0.013 -0.09,0.039c-0.024,0.026 -0.036,0.062 -0.036,0.107c0,0.065 0.028,0.122 0.085,0.172c0.056,0.05 0.126,0.075 0.211,0.075c0.132,0 0.289,-0.104 0.47,-0.313c0.181,-0.208 0.403,-0.528 0.665,-0.958c0.243,-0.395 0.424,-0.737 0.544,-1.029c0.119,-0.291 0.179,-0.537 0.179,-0.737c0,-0.094 -0.014,-0.168 -0.044,-0.221c-0.029,-0.053 -0.069,-0.08 -0.121,-0.08c-0.039,0 -0.073,0.018 -0.102,0.053c-0.029,0.036 -0.043,0.083 -0.043,0.141c0,0.065 0.015,0.133 0.046,0.206c0.03,0.073 0.046,0.153 0.046,0.24c0,0.149 -0.054,0.35 -0.16,0.602c-0.107,0.253 -0.272,0.552 -0.495,0.898c0.003,-0.107 0.004,-0.209 0.004,-0.306c0,-0.097 0,-0.187 0,-0.272c0,-0.517 -0.027,-0.903 -0.082,-1.157c-0.055,-0.254 -0.147,-0.381 -0.277,-0.381c-0.055,0 -0.11,0.024 -0.167,0.073c-0.057,0.049 -0.107,0.106 -0.15,0.172c-0.044,0.067 -0.08,0.134 -0.107,0.202c-0.028,0.068 -0.041,0.119 -0.041,0.155c0,0.032 0.011,0.048 0.034,0.048c0.029,0 0.047,-0.017 0.055,-0.053c0.008,-0.036 0.025,-0.081 0.051,-0.136c0.078,-0.162 0.141,-0.242 0.19,-0.242c0.077,0 0.131,0.127 0.16,0.383c0.029,0.255 0.043,0.655 0.043,1.198c0,0.107 -0.003,0.219 -0.009,0.335c-0.007,0.117 -0.015,0.238 -0.025,0.364Z" style="fill:#a2a2a2;fill-rule:nonzero;"/><path d="M67.418,41.433c0,0.126 0.045,0.189 0.136,0.189c0.051,0 0.096,-0.027 0.133,-0.082c0.037,-0.055 0.056,-0.115 0.056,-0.18c0,-0.126 -0.045,-0.189 -0.136,-0.189c-0.052,0 -0.096,0.025 -0.133,0.075c-0.038,0.051 -0.056,0.113 -0.056,0.187Z" style="fill:#a2a2a2;fill-rule:nonzero;"/></g></svg>